<svg width="58" height="32" viewBox="0 0 58 32" fill="none" xmlns="http://www.w3.org/2000/svg">
<path d="M11.2 4.79995C11.2 5.68315 10.4832 6.39995 9.6 6.39995H1.6C0.7168 6.39995 0 5.68315 0 4.79995C0 3.91675 0.7168 3.19995 1.6 3.19995H9.6C10.4832 3.19995 11.2 3.91675 11.2 4.79995ZM8 12.8C8 13.6832 7.2832 14.4 6.4 14.4H1.6C0.7168 14.4 0 13.6832 0 12.8C0 11.9168 0.7168 11.2 1.6 11.2H6.4C7.2832 11.2 8 11.9168 8 12.8ZM4.8 20.8C4.8 21.6848 4.0832 22.4 3.2 22.4H1.6C0.7168 22.4 0 21.6848 0 20.8C0 19.9152 0.7168 19.2 1.6 19.2H3.2C4.0832 19.2 4.8 19.9152 4.8 20.8Z" fill="#55ACEE"/>
<path d="M51.6817 25.6C50.6801 29.1344 47.0017 32 43.4673 32H11.4673C7.93288 32 5.88008 29.1344 6.88168 25.6L12.3185 6.4C13.3201 2.8656 16.9969 0 20.5313 0H52.5313C56.0657 0 58.1201 2.8656 57.1185 6.4L51.6817 25.6Z" fill="#CCD6DD"/>
<path d="M27.7376 13.8176L7.01442 28.7184C6.96002 28.7632 6.92802 28.8192 6.87842 28.864C7.16482 29.776 7.70722 30.5328 8.46562 31.0784C8.52162 31.0416 8.58242 31.0256 8.63682 30.9824L29.36 16.08C30.1616 15.4544 30.4496 14.4432 30.0016 13.8176C29.552 13.192 28.5408 13.192 27.7376 13.8176ZM49.8336 28.864C49.8096 28.8192 49.808 28.7632 49.7792 28.72L37.5008 13.8176C37.0512 13.192 36.04 13.192 35.2352 13.8176C34.4336 14.4432 34.1472 15.4544 34.5952 16.08L46.8768 30.9824C46.9056 31.024 46.9584 31.0416 46.992 31.0784C48.0576 30.5344 49.0304 29.776 49.8336 28.864Z" fill="#99AAB5"/>
<path d="M57.1183 6.4C58.1199 2.8656 56.0655 0 52.5311 0H20.5311C16.9967 0 13.3199 2.8656 12.3183 6.4L12.2847 6.5184L26.3743 20.0416C28.9839 22.576 32.4351 22.4016 35.5343 20.6352L56.6975 7.8928L57.1183 6.4Z" fill="#99AAB5"/>
<path d="M52.5314 0H20.5314C18.0066 0 15.429 1.4736 13.7842 3.5968L28.5314 17.6672C29.7298 18.8176 32.4258 18.8336 34.381 17.6672L57.2514 3.6384C56.8258 1.4928 55.0722 0 52.5314 0Z" fill="#E1E8ED"/>
</svg>
