<svg width="32" height="32" viewBox="0 0 32 32" fill="none" xmlns="http://www.w3.org/2000/svg">
<path d="M16 32C24.8366 32 32 24.8366 32 16C32 7.16344 24.8366 0 16 0C7.16344 0 0 7.16344 0 16C0 24.8366 7.16344 32 16 32Z" fill="#DD2E44"/>
<path d="M16 28C22.6274 28 28 22.6274 28 16C28 9.37258 22.6274 4 16 4C9.37258 4 4 9.37258 4 16C4 22.6274 9.37258 28 16 28Z" fill="white"/>
<path d="M16.0002 24.8889C20.9094 24.8889 24.8891 20.9092 24.8891 16C24.8891 11.0908 20.9094 7.11108 16.0002 7.11108C11.091 7.11108 7.11133 11.0908 7.11133 16C7.11133 20.9092 11.091 24.8889 16.0002 24.8889Z" fill="#DD2E44"/>
<path d="M15.9998 21.3334C18.9454 21.3334 21.3332 18.9456 21.3332 16.0001C21.3332 13.0546 18.9454 10.6667 15.9998 10.6667C13.0543 10.6667 10.6665 13.0546 10.6665 16.0001C10.6665 18.9456 13.0543 21.3334 15.9998 21.3334Z" fill="white"/>
<path d="M16.0002 18.6666C17.4729 18.6666 18.6668 17.4727 18.6668 15.9999C18.6668 14.5272 17.4729 13.3333 16.0002 13.3333C14.5274 13.3333 13.3335 14.5272 13.3335 15.9999C13.3335 17.4727 14.5274 18.6666 16.0002 18.6666Z" fill="#DD2E44"/>
<path opacity="0.2" d="M16.2135 16.2507L27.8971 26.6987C27.8971 26.6987 25.5442 29.6996 20.8838 31.2401L15.626 16.3734L16.2135 16.2507Z" fill="black"/>
<path d="M16.2616 16.8889C16.0349 16.8889 15.8091 16.8027 15.6358 16.6293C15.29 16.2836 15.29 15.7245 15.6358 15.3787L16.1362 14.8782C16.482 14.5325 17.0411 14.5325 17.3878 14.8782C17.7327 15.224 17.7327 15.7831 17.3878 16.1289L16.8865 16.6293C16.714 16.8027 16.4882 16.8889 16.2616 16.8889Z" fill="#FFAC33"/>
<path d="M21.3477 6.20541C20.9895 8.05341 21.3477 10.3752 21.3477 10.3752L27.6179 3.80808C27.8766 2.51563 27.1486 0.312968 26.0908 0.0409681C25.033 -0.231032 22.465 0.754746 21.3477 6.20541ZM25.7948 10.6525C23.9468 11.0107 21.625 10.6525 21.625 10.6525L28.1921 4.3823C29.4846 4.12363 31.6872 4.85163 31.9592 5.90941C32.2312 6.96719 31.2455 9.53519 25.7948 10.6525Z" fill="#55ACEE"/>
<path d="M29.1537 3.9866L18.823 15.6328C18.5013 15.9546 17.3359 16.4168 16.5919 15.6737C15.8488 14.9306 16.2195 13.8248 16.5413 13.5021L28.2799 3.11193C28.2799 3.11193 28.8808 2.54748 29.3102 2.97682C29.7395 3.40615 29.1537 3.9866 29.1537 3.9866Z" fill="#3A87C2"/>
</svg>
