<svg width="39" height="32" viewBox="0 0 39 32" fill="none" xmlns="http://www.w3.org/2000/svg">
<path d="M0 27.7333C0 30.0896 1.9104 32 4.26667 32H29.8667C32.2229 32 34.1333 30.0896 34.1333 27.7333V9.6C34.1333 7.24373 32.2229 5.33333 29.8667 5.33333H20.2667C16.4672 5.33333 17.0667 0 11.2661 0H4.26667C1.9104 0 0 1.9104 0 4.26667V27.7333Z" fill="#226699"/>
<path d="M34.4917 9.6001H27.4923C21.6917 9.6001 21.7504 14.9334 17.9509 14.9334H8.35093C5.99467 14.9334 3.89013 16.8438 3.6512 19.2001L3.12533 23.3324L2.5664 27.7334L2.54507 27.7313C2.42133 28.3788 1.82827 28.7969 1.1584 28.7969C0.472533 28.7969 -0.0213333 28.2561 0.0128 27.5766C0.0106667 27.63 0 27.6801 0 27.7334C0 29.871 1.57653 31.6246 3.62667 31.935C3.81547 31.9756 4.0224 32.0001 4.26667 32.0001H32C34.3563 32.0001 36.4608 30.0897 36.6997 27.7334L38.3243 13.8668C38.5643 11.5105 36.848 9.6001 34.4917 9.6001Z" fill="#55ACEE"/>
</svg>
