<svg width="42" height="32" viewBox="0 0 42 32" fill="none" xmlns="http://www.w3.org/2000/svg">
<path d="M4.57129 1.14286C4.57129 1.14286 4.57129 0 5.71415 0H12.5713C12.5713 0 13.7141 0 13.7141 1.14286V3.42857H4.57129V1.14286Z" fill="#66757F"/>
<path d="M0 6.85707C0 6.85707 0 2.28564 4.57143 2.28564H36.5714C36.5714 2.28564 41.1429 2.28564 41.1429 6.85707V27.4285C41.1429 27.4285 41.1429 31.9999 36.5714 31.9999H4.57143C4.57143 31.9999 0 31.9999 0 27.4285V6.85707Z" fill="#31373D"/>
<path d="M23.9999 28.5715C30.3117 28.5715 35.4284 23.4548 35.4284 17.1429C35.4284 10.8311 30.3117 5.71436 23.9999 5.71436C17.688 5.71436 12.5713 10.8311 12.5713 17.1429C12.5713 23.4548 17.688 28.5715 23.9999 28.5715Z" fill="#CCD6DD"/>
<path d="M23.9998 26.2857C29.0493 26.2857 33.1426 22.1923 33.1426 17.1429C33.1426 12.0934 29.0493 8 23.9998 8C18.9503 8 14.8569 12.0934 14.8569 17.1429C14.8569 22.1923 18.9503 26.2857 23.9998 26.2857Z" fill="#31373D"/>
<path d="M23.9999 22.857C27.1558 22.857 29.7142 20.2987 29.7142 17.1428C29.7142 13.9868 27.1558 11.4285 23.9999 11.4285C20.844 11.4285 18.2856 13.9868 18.2856 17.1428C18.2856 20.2987 20.844 22.857 23.9999 22.857Z" fill="#3B88C3"/>
<path d="M37.143 8.0001C38.0898 8.0001 38.8573 7.23259 38.8573 6.28582C38.8573 5.33905 38.0898 4.57153 37.143 4.57153C36.1962 4.57153 35.4287 5.33905 35.4287 6.28582C35.4287 7.23259 36.1962 8.0001 37.143 8.0001Z" fill="white"/>
<path d="M13.7141 6.28582C13.7141 7.23325 12.9473 8.0001 11.9999 8.0001H6.28557C5.33815 8.0001 4.57129 7.23325 4.57129 6.28582C4.57129 5.33839 5.33815 4.57153 6.28557 4.57153H11.9999C12.9473 4.57153 13.7141 5.33839 13.7141 6.28582Z" fill="#F5F8FA"/>
</svg>
