<svg width="31" height="32" viewBox="0 0 31 32" fill="none" xmlns="http://www.w3.org/2000/svg">
<path d="M26.6667 28.4444C26.6667 30.408 25.0747 32 23.1111 32H3.55556C1.592 32 0 30.408 0 28.4444V3.55556C0 1.592 1.592 0 3.55556 0H23.1111C25.0747 0 26.6667 1.592 26.6667 3.55556V28.4444Z" fill="#CCD6DD"/>
<path d="M23.1112 21.3333C23.1112 21.8248 22.7139 22.2222 22.2223 22.2222H4.44455C3.95389 22.2222 3.55566 21.8248 3.55566 21.3333C3.55566 20.8417 3.95389 20.4444 4.44455 20.4444H22.2223C22.7139 20.4444 23.1112 20.8417 23.1112 21.3333ZM8.889 24.8888C8.889 25.3804 8.49078 25.7777 8.00011 25.7777H4.44455C3.95389 25.7777 3.55566 25.3804 3.55566 24.8888C3.55566 24.3973 3.95389 23.9999 4.44455 23.9999H8.00011C8.49078 23.9999 8.889 24.3973 8.889 24.8888ZM23.1112 7.11106C23.1112 7.60172 22.7139 7.99995 22.2223 7.99995H4.44455C3.95389 7.99995 3.55566 7.60172 3.55566 7.11106C3.55566 6.62039 3.95389 6.22217 4.44455 6.22217H22.2223C22.7139 6.22217 23.1112 6.62039 23.1112 7.11106ZM23.1112 10.6666C23.1112 11.1582 22.7139 11.5555 22.2223 11.5555H4.44455C3.95389 11.5555 3.55566 11.1582 3.55566 10.6666C3.55566 10.1751 3.95389 9.77772 4.44455 9.77772H22.2223C22.7139 9.77772 23.1112 10.1751 23.1112 10.6666ZM23.1112 14.2222C23.1112 14.7137 22.7139 15.1111 22.2223 15.1111H4.44455C3.95389 15.1111 3.55566 14.7137 3.55566 14.2222C3.55566 13.7306 3.95389 13.3333 4.44455 13.3333H22.2223C22.7139 13.3333 23.1112 13.7306 23.1112 14.2222ZM23.1112 17.7777C23.1112 18.2693 22.7139 18.6666 22.2223 18.6666H4.44455C3.95389 18.6666 3.55566 18.2693 3.55566 17.7777C3.55566 17.2862 3.95389 16.8888 4.44455 16.8888H22.2223C22.7139 16.8888 23.1112 17.2862 23.1112 17.7777Z" fill="#99AAB5"/>
<path d="M26.6669 5.57516C25.9318 5.0996 25.034 5.06049 24.426 5.55471L23.722 6.12894L22.4029 7.20538L22.314 7.27649L20.202 8.99916L9.64376 17.6089C9.25532 17.9263 8.93887 18.6925 8.6011 19.4525C8.2651 20.208 7.73976 21.9876 7.31843 23.3556C7.18687 23.5778 6.37176 24.9965 6.82865 25.536C7.29087 26.0827 8.89621 25.5449 9.11132 25.4685C10.5567 25.3138 12.4278 25.1369 13.2429 24.9529C14.0642 24.7654 14.8909 24.6018 15.2793 24.2845C15.2864 24.2792 15.2882 24.2685 15.2944 24.264L25.8349 15.672L26.5389 15.0978L26.6669 14.9929V5.57516Z" fill="#66757F"/>
<path d="M15.2402 20.0231C15.2402 20.0231 14.1078 18.3511 13.3584 17.7537C12.7611 17.0044 11.0927 15.8728 11.0927 15.8728C10.6944 15.4764 10.034 15.4462 9.64467 15.8346C9.25622 16.224 8.93978 17.0488 8.602 17.8711C8.18245 18.8897 7.46778 21.5635 7.03045 22.984C6.95667 23.2257 7.49 22.584 7.47756 22.7973C7.46867 22.9635 7.50156 23.1475 7.54333 23.3137L7.41356 23.4551L7.59845 23.5146C7.62067 23.5875 7.64289 23.6515 7.65889 23.7013L7.80022 23.5715C7.96645 23.6133 8.15044 23.6462 8.31578 23.6373C8.52911 23.6248 7.88645 24.1591 8.12911 24.0844C9.54956 23.6462 12.2242 22.9324 13.242 22.5128C14.0633 22.1742 14.89 21.8586 15.2784 21.4693C15.6687 21.0826 15.6393 20.4222 15.2402 20.0231Z" fill="#D99E82"/>
<path d="M21.6109 3.86759C20.8322 4.64537 20.8322 5.90582 21.6109 6.6836L24.426 9.4996C25.2046 10.2765 26.4651 10.2765 27.242 9.4996L30.0589 6.6836C30.8357 5.90582 30.8357 4.64537 30.0589 3.86759L27.242 1.0516C26.4651 0.273817 25.2046 0.273817 24.426 1.0516L21.6109 3.86759Z" fill="#EA596E"/>
<path d="M9.64355 15.8355L12.4613 18.6533L15.2747 21.4675L25.8356 10.9084L20.2027 5.27637L9.64355 15.8355Z" fill="#FFCC4D"/>
<path d="M9.15368 23.7708C9.15368 23.7708 7.32256 24.7779 6.82834 24.2828C6.33323 23.7868 7.34479 21.9619 7.34479 21.9619C7.34479 21.9619 9.07901 21.9939 9.15368 23.7708Z" fill="#292F33"/>
<path d="M20.2026 5.27562L23.7226 1.75562L29.3546 7.3885L25.8346 10.9085L20.2026 5.27562Z" fill="#CCD6DD"/>
<path d="M22.3138 3.16274L23.0178 2.45874L28.6498 8.08985L27.9458 8.79385L22.3138 3.16274ZM20.9067 4.57074L21.6098 3.86763L27.2418 9.49874L26.5378 10.2027L20.9067 4.57074Z" fill="#99AAB5"/>
</svg>
