<svg width="40" height="40" viewBox="0 0 40 40" fill="none" xmlns="http://www.w3.org/2000/svg">
<rect width="40" height="40" rx="3.2" fill="#F05705"/>
<path d="M12.8889 4H7.55556C6.61256 4 5.70819 4.3746 5.0414 5.0414C4.3746 5.70819 4 6.61256 4 7.55556V12.8889M27.1111 36H32.4444C33.3874 36 34.2918 35.6254 34.9586 34.9586C35.6254 34.2918 36 33.3874 36 32.4444V27.1111" stroke="#F8F8FC" stroke-width="2.4" stroke-linecap="round" stroke-linejoin="round"/>
<g filter="url(#filter0_d_114_935)">
<path d="M19.9995 15.6998C22.375 15.6998 24.3003 17.6214 24.3003 19.9898C24.3001 22.3581 22.3749 24.2789 19.9995 24.2789C17.6243 24.2786 15.6999 22.358 15.6997 19.9898C15.6997 17.6215 17.6242 15.7 19.9995 15.6998Z" stroke="#F8F8FC" stroke-width="0.6"/>
<mask id="path-4-inside-1_114_935" fill="white">
<path d="M22.2 19.9896C22.2 18.4475 22.558 17.3835 23.3272 17.0456C23.2135 16.9102 23.0905 16.7835 22.9622 16.6621C22.2038 17.0841 21.5 18.0971 21.5 19.9896C21.5 21.8817 22.2038 22.895 22.9622 23.317C23.0905 23.1956 23.2137 23.0689 23.3272 22.9335C22.558 22.5957 22.2 21.5317 22.2 19.9896Z"/>
</mask>
<path d="M22.2 19.9896C22.2 18.4475 22.558 17.3835 23.3272 17.0456C23.2135 16.9102 23.0905 16.7835 22.9622 16.6621C22.2038 17.0841 21.5 18.0971 21.5 19.9896C21.5 21.8817 22.2038 22.895 22.9622 23.317C23.0905 23.1956 23.2137 23.0689 23.3272 22.9335C22.558 22.5957 22.2 21.5317 22.2 19.9896Z" fill="#F8F8FC"/>
<path d="M23.3272 17.0456L24.051 18.6937L26.2507 17.7276L24.7055 15.8879L23.3272 17.0456ZM22.9622 16.6621L24.1993 15.3546L23.2405 14.4475L22.0871 15.0892L22.9622 16.6621ZM22.9622 23.317L22.0871 24.89L23.2405 25.5316L24.1993 24.6246L22.9622 23.317ZM23.3272 22.9335L24.7068 24.0897L26.2482 22.2505L24.051 21.2855L23.3272 22.9335ZM22.2 19.9896H24C24 19.3332 24.0795 18.9168 24.163 18.6914C24.2423 18.4773 24.2559 18.6037 24.051 18.6937L23.3272 17.0456L22.6034 15.3976C21.6293 15.8254 21.0792 16.6527 20.7873 17.4406C20.4995 18.2172 20.4 19.1039 20.4 19.9896H22.2ZM23.3272 17.0456L24.7055 15.8879C24.5372 15.6876 24.3642 15.5106 24.1993 15.3546L22.9622 16.6621L21.7252 17.9697C21.8168 18.0564 21.8897 18.1329 21.9489 18.2033L23.3272 17.0456ZM22.9622 16.6621L22.0871 15.0892C20.6005 15.9162 19.7 17.646 19.7 19.9896H21.5H23.3C23.3 18.5482 23.807 18.252 23.8374 18.2351L22.9622 16.6621ZM21.5 19.9896H19.7C19.7 22.3328 20.6005 24.0629 22.0871 24.89L22.9622 23.317L23.8374 21.7441C23.807 21.7272 23.3 21.4307 23.3 19.9896H21.5ZM22.9622 23.317L24.1993 24.6246C24.3631 24.4696 24.5373 24.2919 24.7068 24.0897L23.3272 22.9335L21.9476 21.7773C21.8901 21.8459 21.8179 21.9217 21.7252 22.0094L22.9622 23.317ZM23.3272 22.9335L24.051 21.2855C24.2559 21.3755 24.2423 21.5018 24.163 21.2877C24.0795 21.0623 24 20.646 24 19.9896H22.2H20.4C20.4 20.8753 20.4995 21.762 20.7873 22.5386C21.0792 23.3264 21.6293 24.1537 22.6034 24.5816L23.3272 22.9335Z" fill="#F8F8FC" mask="url(#path-4-inside-1_114_935)"/>
<mask id="path-6-inside-2_114_935" fill="white">
<path d="M16.6729 17.0456C17.4421 17.3837 17.8 18.4475 17.8 19.9896C17.8 21.5317 17.4421 22.5954 16.6729 22.9335C16.7866 23.0689 16.9095 23.1954 17.0378 23.317C17.796 22.895 18.5 21.8922 18.5 20C18.5 18.1078 17.7963 17.0841 17.0378 16.6624C16.9095 16.7837 16.7863 16.9102 16.6729 17.0456Z"/>
</mask>
<path d="M16.6729 17.0456C17.4421 17.3837 17.8 18.4475 17.8 19.9896C17.8 21.5317 17.4421 22.5954 16.6729 22.9335C16.7866 23.0689 16.9095 23.1954 17.0378 23.317C17.796 22.895 18.5 21.8922 18.5 20C18.5 18.1078 17.7963 17.0841 17.0378 16.6624C16.9095 16.7837 16.7863 16.9102 16.6729 17.0456Z" fill="#F8F8FC"/>
<path d="M16.6729 17.0456L15.2933 15.8894L13.7523 17.7281L15.9486 18.6935L16.6729 17.0456ZM16.6729 22.9335L15.9486 21.2857L13.7498 22.2521L15.2945 24.0912L16.6729 22.9335ZM17.0378 23.317L15.7994 24.6233L16.7584 25.5325L17.9131 24.8898L17.0378 23.317ZM17.0378 16.6624L17.9125 15.0892L16.7593 14.448L15.8007 15.3548L17.0378 16.6624ZM16.6729 17.0456L15.9486 18.6935C15.7441 18.6036 15.7578 18.4776 15.8371 18.6915C15.9206 18.9169 16 19.3332 16 19.9896H17.8H19.6C19.6 19.1039 19.5005 18.2172 19.2127 17.4406C18.9208 16.6527 18.3708 15.8257 17.3971 15.3978L16.6729 17.0456ZM17.8 19.9896H16C16 20.646 15.9206 21.0622 15.8371 21.2876C15.7578 21.5016 15.7441 21.3755 15.9486 21.2857L16.6729 22.9335L17.3971 24.5814C18.3708 24.1534 18.9208 23.3264 19.2127 22.5385C19.5005 21.7619 19.6 20.8753 19.6 19.9896H17.8ZM16.6729 22.9335L15.2945 24.0912C15.4634 24.2923 15.6364 24.4688 15.7994 24.6233L17.0378 23.317L18.2762 22.0107C18.1825 21.9219 18.1097 21.8455 18.0512 21.7758L16.6729 22.9335ZM17.0378 23.317L17.9131 24.8898C19.395 24.0651 20.3 22.3494 20.3 20H18.5H16.7C16.7 21.4349 16.1971 21.7249 16.1624 21.7442L17.0378 23.317ZM18.5 20H20.3C20.3 17.6629 19.4037 15.9183 17.9125 15.0892L17.0378 16.6624L16.1631 18.2356C16.1888 18.2499 16.7 18.5527 16.7 20H18.5ZM17.0378 16.6624L15.8007 15.3548C15.6379 15.5089 15.4634 15.6864 15.2933 15.8894L16.6729 17.0456L18.0524 18.2018C18.1092 18.134 18.1811 18.0586 18.2748 17.9699L17.0378 16.6624Z" fill="#F8F8FC" mask="url(#path-6-inside-2_114_935)"/>
</g>
<defs>
<filter id="filter0_d_114_935" x="15.1999" y="15.1999" width="9.6002" height="9.57914" filterUnits="userSpaceOnUse" color-interpolation-filters="sRGB">
<feFlood flood-opacity="0" result="BackgroundImageFix"/>
<feColorMatrix in="SourceAlpha" type="matrix" values="0 0 0 0 0 0 0 0 0 0 0 0 0 0 0 0 0 0 127 0" result="hardAlpha"/>
<feOffset/>
<feGaussianBlur stdDeviation="0.1"/>
<feComposite in2="hardAlpha" operator="out"/>
<feColorMatrix type="matrix" values="0 0 0 0 1 0 0 0 0 0.823529 0 0 0 0 0.72549 0 0 0 1 0"/>
<feBlend mode="normal" in2="BackgroundImageFix" result="effect1_dropShadow_114_935"/>
<feBlend mode="normal" in="SourceGraphic" in2="effect1_dropShadow_114_935" result="shape"/>
</filter>
</defs>
</svg>
